<svg width="512" height="450" viewBox="0 0 512 450" fill="none" xmlns="http://www.w3.org/2000/svg">
<path d="M458.4 33.2999C400.6 -15.3001 311.3 -8.00006 256 48.2999C200.7 -8.00006 111.4 -15.4001 53.6 33.2999C-21.6 96.5999 -10.6 199.8 43 254.5L218.4 433.2C228.4 443.4 241.8 449.1 256 449.1C270.3 449.1 283.6 443.5 293.6 433.3L469 254.6C522.5 199.9 533.7 96.6999 458.4 33.2999V33.2999ZM434.8 220.8L259.4 399.5C257 401.9 255 401.9 252.6 399.5L77.2 220.8C40.7 183.6 33.3 113.2 84.5 70.0999C123.4 37.3999 183.4 42.2999 221 80.5999L256 116.3L291 80.5999C328.8 42.0999 388.8 37.3999 427.5 69.9999C478.6 113.1 471 183.9 434.8 220.8V220.8Z" fill="#FDA3B2"/>
</svg>
